HIERARCHY
ROOT Hips
{
  OFFSET -282.529 88.4099 -277.992
  CHANNELS 6 Xposition Yposition Zposition Zrotation Xrotation Yrotation
  JOINT ToSpine
  {
    OFFSET -0.0105055 1.38907 -7.13956
    CHANNELS 3 Zrotation Xrotation Yrotation
    JOINT Spine
    {
      OFFSET 0.0105055 10 1
      CHANNELS 3 Zrotation Xrotation Yrotation
      JOINT Spine1
      {
        OFFSET 0 12 1.60637
        CHANNELS 3 Zrotation Xrotation Yrotation
        JOINT Neck
        {
          OFFSET 0 27 2.26658
          CHANNELS 3 Zrotation Xrotation Yrotation
          JOINT Head
          {
            OFFSET 0 9 2.12705
            CHANNELS 3 Zrotation Xrotation Yrotation
            End Site
            {
              OFFSET 0 11 2
            }
          }
        }
        JOINT LeftShoulder
        {
          OFFSET 8 19.6109 2.86452
          CHANNELS 3 Zrotation Xrotation Yrotation
          JOINT LeftArm
          {
            OFFSET 12 1 0.681055
            CHANNELS 3 Zrotation Xrotation Yrotation
            JOINT LeftForeArm
            {
              OFFSET 19 0 -1.52608
              CHANNELS 3 Zrotation Xrotation Yrotation
              JOINT LeftHand
              {
                OFFSET 23 0 0
                CHANNELS 3 Zrotation Xrotation Yrotation
                End Site
                {
                  OFFSET 10 0 0
                }
              }
            }
          }
        }
        JOINT RightShoulder
        {
          OFFSET -8 19.6109 2.86452
          CHANNELS 3 Zrotation Xrotation Yrotation
          JOINT RightArm
          {
            OFFSET -12 1 0.681055
            CHANNELS 3 Zrotation Xrotation Yrotation
            JOINT RightForeArm
            {
              OFFSET -19 0 -1.52608
              CHANNELS 3 Zrotation Xrotation Yrotation
              JOINT RightHand
              {
                OFFSET -23 0 0
                CHANNELS 3 Zrotation Xrotation Yrotation
                End Site
                {
                  OFFSET -10 0 0
                }
              }
            }
          }
        }
      }
    }
  }
  JOINT LeftUpLeg
  {
    OFFSET 9 -7.17245 0
    CHANNELS 3 Zrotation Xrotation Yrotation
    JOINT LeftLeg
    {
      OFFSET 0 -44.1113 0
      CHANNELS 3 Zrotation Xrotation Yrotation
      JOINT LeftFoot
      {
        OFFSET 0 -36.1829 0
        CHANNELS 3 Zrotation Xrotation Yrotation
        JOINT LeftToeBase
        {
          OFFSET 0 -4.84184 13
          CHANNELS 3 Zrotation Xrotation Yrotation
          End Site
          {
            OFFSET 0 1 6
          }
        }
      }
    }
  }
  JOINT RightUpLeg
  {
    OFFSET -9 -7.17245 0
    CHANNELS 3 Zrotation Xrotation Yrotation
    JOINT RightLeg
    {
      OFFSET 0 -44.0551 0
      CHANNELS 3 Zrotation Xrotation Yrotation
      JOINT RightFoot
      {
        OFFSET 0 -36.1469 0
        CHANNELS 3 Zrotation Xrotation Yrotation
        JOINT RightToeBase
        {
          OFFSET 0 -4.92256 13
          CHANNELS 3 Zrotation Xrotation Yrotation
          End Site
          {
            OFFSET 0 1 6
          }
        }
      }
    }
  }
}
MOTION
Frames:	10
Frame Time:	0.0333333
-282.861 88.2352 -278.291 -7.90306 5.0783 -119.118 0 0 0 1.73419 9.04334 -3.5698 -3.74392 -0.932083 -3.43313 6.80441 -4.0919 4.03243 -2.28932 2.61989 6.22308 -22.8689 2.60007 -5.38012 -32.2319 14.3036 -21.0728 29.6712 -11.2693 -108.932 -16.5106 0.335344 -2.31993 17.958 3.37811 10.2133 56.9839 0.471442 -32.6592 -17.9438 4.68987 75.8301 4.60708 0.179053 4.48477 10.2696 -21.1543 11.0293 -0.608815 88.041 -6.24803 15.637 -15.246 2.18158 1.44083 -12.7847 -4.51684 -5.7325 -19.5459 1.67172 -0.00117533 55.2046 4.34458 -23.3924 -15.1872 -3.16689 4.21839 -16.5352 -10.0632 
-280.727 89.682 -276.023 -8.82054 6.19097 -120.371 0 0 0 1.78096 5.50836 -5.68537 -4.48568 1.99348 -5.80178 7.20918 -0.576243 6.5754 -3.53852 1.83645 9.34702 -19.1261 2.55273 -6.4399 -28.7519 11.5874 -24.181 23.5564 -9.64414 -111.02 -13.6128 0.229114 -1.90007 15.1635 2.39584 7.27242 61.2538 3.78004 -39.1207 -15.6421 3.16545 78.8437 5.41129 0.286826 5.97842 10.5777 -10.8473 11.7827 -0.576623 85.1809 -8.79086 29.4001 -8.75266 2.13561 1.3284 -12.7068 -3.69273 -4.62268 -18.102 4.40139 0.0995526 49.0919 3.93515 -23.8021 -8.01152 -1.64696 4.41665 -17.5499 -9.67833 
-278.479 92.3827 -272.293 -10.0569 8.43204 -123.028 0 0 0 1.29012 2.56838 -7.96499 -2.44932 6.38477 -8.83454 6.82825 2.02305 10.114 -5.82902 1.54473 13.4239 -15.2717 2.40053 -7.31568 -26.4425 8.99824 -24.0749 22.6216 -9.91834 -112.458 -12.7545 0.17705 -1.58904 12.4378 2.13331 7.42378 60.2446 4.0216 -45.6635 -15.2697 1.28732 85.2956 9.2288 0.438759 5.52252 7.40485 2.20913 8.72139 0.405796 74.7462 -13.9889 24.4225 -9.19791 1.9729 1.04156 -11.2235 -2.02579 -4.0168 -13.4505 7.87411 0.355324 36.0756 5.87005 -20.9432 3.59949 0.641806 4.47735 -17.8879 -9.40554 
-274.748 94.8005 -268.046 -8.70829 9.31173 -125.138 0 0 0 1.29501 -0.861602 -8.8494 -0.74554 9.47285 -9.89232 8.73114 3.17766 11.0115 -7.94413 3.31492 15.5899 -11.0841 2.17633 -8.36779 -24.7065 10.2336 -25.8755 24.0062 -9.90155 -111.112 -12.6401 0.0906311 -0.811041 11.6879 2.13056 7.76687 57.5618 1.74345 -50.033 -11.8715 0.374403 88.2195 10.567 0.553988 5.97877 4.79284 8.07377 5.6384 -0.0255747 62.8893 -15.0674 15.3824 -10.7652 1.45844 0.979502 -10.8214 -1.77768 -4.03589 -10.9454 3.41734 -2.01456 19.092 17.4516 -15.851 14.0009 1.95098 3.15904 -10.9471 -7.27127 
-269.341 95.4948 -264.173 -4.0937 7.1884 -126.309 0 0 0 -2.62557 -5.4034 -8.84745 4.12393 10.0486 -10.4468 12.7786 2.79372 10.3842 -10.2684 5.14521 16.8995 -8.78762 2.00582 -8.80363 -23.5298 13.8315 -26.1023 25.801 -10.2685 -110.241 -11.7574 0.144772 -1.41746 12.1409 2.35273 8.67282 55.6601 -1.5464 -50.1408 -7.92458 0.161995 88.8364 11.1074 0.66666 6.847 4.72836 3.63811 6.04966 0.0340222 56.771 -14.5275 14.0935 -11.679 1.46188 0.83005 -9.69211 -1.19028 -3.20523 -15.9093 5.08328 -2.52989 15.0229 20.7135 -19.812 8.24268 1.36652 2.82821 -9.64724 -6.43547 
-263.818 95.4461 -258.856 -3.3896 5.21575 -129.762 0 0 0 -4.84093 -2.21203 -6.76014 6.09621 6.58382 -8.4761 15.2472 -0.214098 10.3212 -11.2768 6.02845 17.4789 -12.6175 2.47733 -9.00777 -20.435 17.4996 -20.5624 26.3498 -11.1035 -111.246 -11.369 0.303042 -3.03672 14.9942 2.78826 9.23102 52.1348 -1.97915 -44.7422 -10.4779 -0.52854 92.8555 10.3391 0.606759 6.68736 0.973549 -0.780853 7.12487 -0.0910754 52.2647 -9.51618 18.7147 -8.64909 1.408 1.19453 -16.1051 -1.00805 -4.74331 -21.1597 10.2599 -0.72066 25.4574 11.1658 -21.7004 -0.228136 -0.0249074 2.11327 -6.2801 -6.24448 
-257.954 94.1805 -253.378 -3.00579 5.28859 -133.111 0 0 0 -4.80813 3.1148 -4.4759 6.6976 2.66542 -6.22057 16.9209 -3.76044 10.51 -11.1153 7.02122 17.566 -18.8784 3.03994 -8.42312 -19.136 20.706 -10.4681 24.0913 -10.7575 -112.658 -11.9387 0.20691 -2.0383 19.6301 3.71627 10.6337 45.6948 -0.807585 -36.4131 -13.1882 -2.16845 99.1724 10.6506 0.474338 5.10104 0.670518 -6.05675 8.79453 0.0176817 53.8411 -7.87254 17.6276 -11.3818 1.7512 1.49169 -22.0019 0.16321 -4.20718 -24.8566 8.45685 -0.0774142 43.043 2.01133 -23.1002 -5.58596 -1.1417 2.88743 -9.82874 -6.67882 
-252.245 92.5893 -248.081 -3.2641 6.67564 -135.552 0 0 0 -3.69583 7.01355 -2.08889 5.57744 0.385397 -3.69713 17.1971 -3.27446 9.32922 -9.84285 5.00745 16.1393 -22.3731 3.19968 -7.61087 -23.5799 23.3076 -0.428796 26.0044 -10.3504 -110.219 -10.2705 -0.158002 1.88159 22.6897 4.9475 13.4265 38.1807 -0.726252 -28.0015 -9.48737 -2.66959 105.573 9.20387 0.409769 5.1133 2.32498 -9.03285 11.0311 0.00140848 54.7013 -8.25146 19.0421 -13.4867 2.27707 2.1756 -30.4675 -0.0111232 -4.45567 -24.5777 4.82903 -0.0281858 61.0619 -3.29479 -25.2166 -11.4073 -2.56981 3.2722 -11.7525 -6.10818 
-247.078 91.2465 -243.116 -2.92851 7.13512 -137.288 0 0 0 -1.77109 9.4703 0.0531145 3.06662 -2.07305 -1.08609 16.6225 -5.42235 7.84862 -8.2745 5.76089 13.8372 -23.6979 2.8878 -6.12317 -31.9539 24.0046 13.4034 27.533 -10.8354 -109.83 -13.1955 -0.294382 2.55872 23.3078 3.81416 9.31921 31.8479 1.11878 -12.1314 -11.3724 -4.15661 109.818 8.45213 0.257979 3.48191 3.85398 -13.9687 13.4928 -0.00914566 56.8671 -8.90139 20.0898 -18.5335 3.30891 1.58661 -22.6717 -0.610072 -5.88939 -21.5387 1.7059 -0.219223 75.2945 -7.06277 -24.9352 -13.6347 -3.02527 3.35618 -12.1645 -5.73258 
-242.64 90.3566 -238.596 -2.91497 5.51691 -137.343 0 0 0 -2.73138 7.29765 1.66036 3.26236 -0.576823 0.442004 14.7597 -9.39783 6.58373 -7.16893 7.49931 11.3935 -22.998 2.27449 -4.24269 -41.8199 19.9193 29.7295 29.0146 -13.8407 -113.331 -14.9065 -0.212219 1.62432 21.0714 3.12805 7.8349 25.8686 -2.18642 0.160507 -11.4654 -5.01623 113.321 8.29971 0.156519 2.17428 2.41187 -20.5742 13.3767 0.00301535 57.8719 -6.43468 19.929 -18.9306 3.37198 1.29965 -16.4748 -1.96622 -9.87977 -15.6424 -1.89778 0.524144 83.297 -8.87041 -24.4068 -12.2482 -2.67149 3.32139 -12.0352 -5.45165 
